<?xml version="1.0" encoding="UTF-8" standalone="no"?>
<svg xmlns="http://www.w3.org/2000/svg" viewBox="0 0 512 512" width="512" height="512">
  <rect width="512" height="512" fill="#001228"/>
  <g stroke="#7FFF3B" stroke-width="6" fill="none">
    <polyline points="40,80 40,40 80,40"/>
    <polyline points="432,40 472,40 472,80"/>
    <polyline points="472,432 472,472 432,472"/>
    <polyline points="80,472 40,472 40,432"/>
  </g>
  <g font-family="Anton, Impact, 'Arial Black', sans-serif" font-weight="900" text-anchor="middle">
    <g transform="translate(159.127 245.000) scale(0.097656 -0.097656)"><path d="M78 0V1760H543Q689 1760 774.5 1695.0Q860 1630 897.0 1510.0Q934 1390 934 1224Q934 1064 903.0 945.5Q872 827 792.5 762.0Q713 697 567 697H424V0ZM424 1013H444Q542 1013 564.0 1068.0Q586 1123 586 1230Q586 1330 564.5 1384.5Q543 1439 463 1439H424Z" fill="#7FFF3B"/></g><g transform="translate(257.561 245.000) scale(0.097656 -0.097656)"><path d="M78 0V1760H618Q753 1760 822.0 1698.5Q891 1637 914.5 1526.5Q938 1416 938 1267Q938 1123 901.5 1037.0Q865 951 764 918Q847 901 880.5 835.5Q914 770 914 666V0H567V689Q567 766 535.5 784.5Q504 803 434 803V0ZM436 1108H521Q594 1108 594 1267Q594 1370 578.0 1402.0Q562 1434 518 1434H436Z" fill="#7FFF3B"/></g>
    <line x1="120" y1="280" x2="392" y2="280" stroke="#FFFFFF" stroke-width="4"/>
    <g transform="translate(146.406 370.000) scale(0.039062 -0.039062)"><path d="M78 0V1760H782V1417H432V1137H764V798H432V0Z" fill="#FFFFFF"/></g><g transform="translate(186.320 370.000) scale(0.039062 -0.039062)"><path d="M498 -16Q287 -16 175.5 111.5Q64 239 64 480V1316Q64 1542 174.5 1659.0Q285 1776 498 1776Q711 1776 821.5 1659.0Q932 1542 932 1316V480Q932 239 820.5 111.5Q709 -16 498 -16ZM501 308Q581 308 581 463V1322Q581 1452 503 1452Q415 1452 415 1319V461Q415 379 435.0 343.5Q455 308 501 308Z" fill="#FFFFFF"/></g><g transform="translate(233.227 370.000) scale(0.039062 -0.039062)"><path d="M78 0V1760H618Q753 1760 822.0 1698.5Q891 1637 914.5 1526.5Q938 1416 938 1267Q938 1123 901.5 1037.0Q865 951 764 918Q847 901 880.5 835.5Q914 770 914 666V0H567V689Q567 766 535.5 784.5Q504 803 434 803V0ZM436 1108H521Q594 1108 594 1267Q594 1370 578.0 1402.0Q562 1434 518 1434H436Z" fill="#FFFFFF"/></g><g transform="translate(279.352 370.000) scale(0.039062 -0.039062)"><path d="M441 -16Q64 -16 64 524V1283Q64 1776 496 1776Q674 1776 769.0 1704.5Q864 1633 900.0 1496.0Q936 1359 936 1162H592V1318Q592 1375 576.5 1413.5Q561 1452 512 1452Q451 1452 431.5 1411.0Q412 1370 412 1321V468Q412 397 430.5 352.5Q449 308 503 308Q559 308 577.5 352.5Q596 397 596 470V721H502V1025H932V0H791L731 148Q639 -16 441 -16Z" fill="#FFFFFF"/></g><g transform="translate(326.141 370.000) scale(0.039062 -0.039062)"><path d="M78 0V1760H562Q752 1760 848.0 1654.5Q944 1549 944 1346V522Q944 272 856.5 136.0Q769 0 550 0ZM432 311H493Q590 311 590 405V1313Q590 1401 566.5 1426.5Q543 1452 471 1452H432Z" fill="#FFFFFF"/></g>
  </g>
  <rect x="156" y="410" width="200" height="6" fill="#7FFF3B"/>
</svg>
